EMG
version=1
nRows=41
nColumns=17
inDegrees=no
endheader
time	EMG01_right_gast_med	EMG02_right_glut_max	EMG03_left_gast_med	EMG04_left_glut_max	EMG05_right_glut_med	EMG06_right_bic_fem	EMG07_right_rect_fem	EMG08_right_vast_lat	EMG09_right_vast_med	EMG10_right_tens_fasc_lat	EMG11_left_glut_med	EMG12_left_bic_fem	EMG13_left_rect_fem	EMG14_left_vast_lat	EMG15_left_vast_med	EMG16_left_tens_fasc_lat
      2.07000000	    184.53750610	     -8.91673183	     10.92096806	    -47.08760834	     22.13032532	     -5.63939428	     -7.53809690	    -12.07275105	    -36.26760101	    -68.39726257	      4.23889923	      9.00040436	    -48.87262726	      3.87343884	     48.63637924	   -132.51750183
      2.08000000	    -31.40024757	     -0.49357355	     -1.90846896	     -3.03690767	     53.74806976	      1.30106568	    -67.36795807	    -10.47546101	    -35.24780273	    -33.71846771	    -26.04705620	    -58.99678802	   -111.16729736	      8.66465282	     -5.54951668	     14.44996738
      2.09000000	    125.58283997	      5.95262241	    -12.59903717	     31.16711807	     51.97804642	     -5.37036753	    128.15762329	     -2.92610383	    -37.74876785	     32.53086472	      6.74215841	    -42.51335907	     -4.43083811	     47.47840118	     72.66439056	    216.80171204
      2.10000000	    -61.16852951	      7.78170729	     17.46125603	     31.34083557	      4.09780693	     -4.59178257	    -55.31034470	    -15.89826965	    -35.62193298	    -40.66640091	     -7.07020617	    -14.36045933	    -81.75878906	     70.38885498	    122.61149597	    185.48803711
      2.11000000	      5.91542673	      9.30430126	    -20.63940430	      4.57640696	    -41.72760391	    -10.91754150	     -5.36578226	     -7.67200947	    -20.83841324	      9.97200489	     -8.25458622	     17.85166359	    -27.90737915	     30.62373352	    100.89086914	    129.29052734
      2.12000000	      6.85229778	     11.29727650	      6.53725863	     31.51745224	    -51.62195587	     -6.51836824	     -0.68652129	     -7.39731598	    -20.85531998	    135.24533081	    -20.97349739	    -24.95715141	     -0.77778411	      0.52726674	    -28.64232445	     76.72681427
      2.13000000	      9.40154934	     11.41382217	    -15.77920818	     -4.92680025	      1.83979392	     -7.71768761	      1.52152395	     -2.31891489	    -23.18350601	    237.33984375	      2.39219165	     28.42971992	    -15.43013287	     28.33127975	    -56.49155045	     18.79858017
      2.14000000	      2.88458586	     21.67455292	    -15.90797520	    -14.66029167	    -14.22345829	    -22.76325035	      5.38384342	     -1.30012798	    -20.21219826	     71.13903809	    -19.16657829	      4.74883556	     -8.45623112	    -30.04044914	   -129.08174133	    -13.38573742
      2.15000000	     21.68224144	     11.98691559	     29.46072006	      8.06862164	    -25.19783401	      2.08558059	      5.10742044	      0.62554812	    -22.20648193	   -153.29756165	     -1.22507071	     61.25456238	      7.15958738	    -13.73549461	     28.60566711	     28.17754173
      2.16000000	     -5.75342560	     21.64716911	      1.49580956	     27.92451477	    296.57568359	     -7.24278688	     11.63752460	      2.08019543	     -9.42839718	    -99.48470306	     12.41339588	     18.61460114	      3.57426357	    -20.76885033	    -62.17864990	     24.74089432
      2.17000000	     -9.91529369	     12.27051163	    -69.72527313	     56.06454086	    261.62084961	    -11.37662983	    -12.85889339	      1.24742913	     32.93320465	    -42.71245956	     30.81946564	     -6.48188114	    -11.80759239	    -85.07688904	    -91.41642761	    -82.65966797
      2.18000000	    -24.21932793	      3.89775610	     -2.57513928	     18.04931450	   -191.96318054	      5.75376892	      0.57590729	     -5.23643780	     40.62594223	    -25.11842537	    -26.87683868	      8.98559380	      4.87611675	    -49.45915222	    152.81231689	   -172.61541748
      2.19000000	    -19.17014694	     -5.19069242	     28.22668076	      6.12219095	   -462.83786011	     -5.88540459	     -1.91090393	     -1.84092808	     38.10350800	    -22.56501579	    -66.16485596	      5.16378260	     31.21255112	     -0.78492117	     59.98461533	   -133.85990906
      2.20000000	    -23.21870613	     -5.16491842	    -11.52054214	    -74.93544769	   -234.21340942	     -4.67316437	      0.40688860	     -1.46925724	     15.68783569	     -2.93522477	     73.98831940	      7.97487354	     32.91468811	    208.69787598	    117.95127869	    -31.48257446
      2.21000000	    -11.49551773	      3.79024911	     16.79859734	   -107.70963287	    189.43600464	      2.90381622	     -8.21334362	      3.66375518	     -1.30950403	    -11.43086433	     42.66515350	    -43.54412460	     -9.96091080	   -136.96862793	   -113.54484558	   -195.98591614
      2.22000000	     -3.25709605	    -12.42021942	    -36.80821228	    -56.19515991	    134.99172974	      7.66348743	     -6.77917528	      7.77387476	      3.65164471	    -18.98429108	    -28.57248688	    -26.71116638	    -23.54798126	    -24.47195625	    203.67701721	    -94.80076599
      2.23000000	      5.54893923	    -19.03095818	     17.36105347	     21.82221603	    -54.18162918	    -15.94971657	     -5.71749544	     21.86078072	     11.00216961	    -36.89627075	     20.86796570	    -24.39776611	      9.53583241	     92.84421539	    287.51849365	    -41.79382324
      2.24000000	     -7.32436848	    -13.22244740	    -19.64659882	     35.72607040	     19.48988724	     30.83882332	     -5.01457596	     53.22708893	     48.43235397	    -53.91122437	    -28.50856590	     12.93022919	    -12.66973305	    -45.21313095	     49.13697052	    -93.67482758
      2.25000000	    -21.50195885	      8.06403065	    139.35330200	    140.04687500	    246.30648804	     10.03336525	      1.39989698	     70.86891174	     71.63924408	      4.70269203	    -23.58360100	     33.54315567	      4.79444551	     10.90915298	    -91.96224976	    185.93283081
      2.26000000	    -34.81600952	     44.82377243	    -40.74754333	    234.46028137	    249.01478577	      7.20229149	     -6.22517490	     51.37543869	     31.28816986	    -93.17593384	      4.39245510	     37.27759552	     75.32908630	      0.59323120	   -411.66690063	    138.79077148
      2.27000000	    -42.03845596	     43.44902039	     11.12790775	    219.15136719	      1.11956120	     -1.93715751	    -23.91782570	    -11.26659870	    -96.54742432	    -64.32609558	    -15.59050274	     17.38739014	     31.47223282	    -97.84758759	   -386.61685181	    107.97876740
      2.28000000	    -32.72182083	   -126.95571136	    -11.21421814	    107.53428650	   -266.22094727	    -44.14439774	      6.68929768	    -36.40428162	   -136.74060059	    -23.13053703	    -47.83729553	     -2.17499018	     31.56335831	    -28.29265213	   -112.60677338	    126.23600006
      2.29000000	    -31.60108948	   -367.97631836	     28.72229385	    -48.25238419	   -274.70944214	    -41.71284485	     19.10852432	    -44.93001556	    -99.71467590	     36.54226303	     -9.21043873	     -7.53586483	     52.90218735	     17.49919128	     26.22781181	     -8.96450806
      2.30000000	     -8.89595127	   -372.04925537	    122.57830811	   -176.67526245	   -147.33383179	    -44.83333969	     18.47590446	    -49.66976929	    -45.75752640	     44.67314148	      0.62497115	    -18.58464241	    -23.64833641	    -21.02923584	    -74.44860077	     16.09745026
      2.31000000	    -17.04652786	   -290.56100464	   -361.62609863	   -257.84106445	    -58.58462143	    -27.05990028	     21.72477722	    -35.19829178	    -25.47968864	    -65.98566437	     -4.87613678	     -4.48306417	     23.66454315	     -1.12490427	    -47.96996689	    126.30680084
      2.32000000	    -20.53203964	   -110.29386139	    269.82849121	   -211.81991577	    -96.02008057	      8.63412857	      7.44435883	    -54.89825821	      8.28890228	   -218.73962402	     -3.65013742	      0.60016263	     27.28567314	     -8.07495689	    -46.46751785	    130.02233887
      2.33000000	    -11.58365917	     18.25388718	    -25.10426712	   -200.94493103	   -120.21962738	     14.12485695	      3.12978029	    -75.32175446	      5.99660301	    -59.42219925	     -2.66540527	     -7.62695312	     25.75215721	      9.12526417	     37.55961227	     26.61488914
      2.34000000	    -11.33418941	    152.15597534	     22.55888176	   -188.03424072	   -126.21220398	      7.79485703	      5.67019224	    -83.50581360	     -2.36642170	   -131.59915161	    -14.64660263	    -17.84534454	     12.09807205	     14.41320324	     43.88434219	     35.31105042
      2.35000000	      9.16367531	    147.26373291	     -8.03471661	    -84.80321503	    -58.80715942	      8.63524055	     -6.55752563	    -64.22978210	      8.59992790	   -116.24938202	      4.81687117	     -7.72849178	     27.25471687	     15.74090767	     29.78689194	     91.36074066
      2.36000000	     38.88328171	    153.50816345	     40.58370972	     68.15515900	     34.28938675	     -9.56307411	     -2.50109744	    -52.77889252	     30.17291832	     82.45569611	     -7.74742889	    -10.54565525	      8.46736908	     -3.95967507	     48.47632599	    165.67208862
      2.37000000	     37.51856613	     95.59603119	    443.31777954	    140.18049622	     22.18681717	    -49.23885727	     -1.89736414	    -32.00101471	     19.22649956	     99.85451508	     -4.36654997	     -8.72044086	      8.50636482	     -3.80482960	     79.57472992	    252.80628967
      2.38000000	     55.47592926	    161.83303833	     17.45714569	    184.25311279	     17.74634743	     32.71921539	     -9.68404961	    -27.68334961	     24.83752441	     49.09254074	    -55.11425018	      1.97444272	      9.83912182	     -1.14940381	     88.01689911	    211.73361206
      2.39000000	     38.30879211	    195.78787231	    -36.20923615	    236.42997742	     17.03914833	     12.33345032	    -11.93717957	    -11.61869907	     17.29496002	     22.78720856	     31.35718346	     -1.47229600	      9.10413742	     -3.51013517	     25.87187767	    212.94969177
      2.40000000	    -48.04185486	    221.31315613	     39.62708664	    255.18995667	     14.03512764	      8.40594959	     -5.53370476	      9.11228371	      6.45275259	     25.52079964	     31.39355469	      4.43721485	      3.09019423	    -19.93605232	    -24.06370163	    148.52861023
      2.41000000	    -45.93407440	    218.39254761	     12.96094513	    192.70397949	    -21.24300003	      6.06963396	     -6.85613060	     16.38337898	      4.95230246	     29.92780685	    -69.10482025	      5.21445465	     16.68235016	     -1.74881339	    -33.27201843	    -99.17179108
      2.42000000	      1.17123270	    148.46867371	      0.19213533	     78.72803497	    -27.03518295	     -9.95319271	     -2.77729654	     19.51699066	      3.19356608	    109.60521698	     13.04424858	     -3.48751688	    -10.18896294	     -0.20377135	    -23.40152168	    -77.34485626
      2.43000000	     28.04332352	     85.97182465	     13.43992233	    -41.91540146	     24.96190071	    -41.55832672	     -2.47543025	     25.38935471	     13.03957367	    102.90493011	      0.31057799	     -9.04432964	     -0.38592407	     -2.41699219	    -37.25276947	   -153.06175232
      2.44000000	     30.91468620	      1.20473242	     -5.42392349	    -96.19046021	     55.25077057	     26.80496597	      0.15383470	     25.35390854	     19.48189926	     75.59289551	     21.45669556	    -11.08342648	     12.64573669	    -13.50829124	    -43.73965836	   -167.62713623
      2.45000000	     40.90911484	    -57.84644699	     21.89949799	    -94.08759308	     23.81052399	     18.78188705	      2.20754528	     29.90689659	     18.14804840	     51.85088730	     -3.35548782	     -2.83123779	     -1.56557059	    -10.65792847	    -69.25508881	   -197.63487244
      2.46000000	     30.62908554	    -84.91038513	    -50.53622055	    -74.09622192	    -29.85834694	    -19.30791283	      4.67947292	     28.79147339	     11.02562809	     53.82466125	     -5.77907848	     -5.41935301	     25.06527710	    -18.78581429	    -63.90267944	   -191.47331238
      2.47000000	     15.07956123	    -11.00941372	     -3.45058632	    -65.30821228	     52.24840927	    -41.40999603	     -4.87012672	     27.21776009	     11.14626408	     19.39108467	     10.02901554	    -13.61267662	    -12.78232384	    -11.73345852	    -38.13792038	   -172.67050171
